
<svg width="640" height="480" xmlns="http://www.w3.org/2000/svg" xmlns:svg="http://www.w3.org/2000/svg">
 <!-- Created with SVG-edit - https://github.com/SVG-Edit/svgedit-->
 <g class="layer">
  <title>Layer 1</title>
  <path class="http://www.baidu.com" id="bool" d="m77.73617,168.18587c-0.25552,-10.15218 4.77217,-20.12646 13.22972,-25.80277c13.7894,-10.48052 31.98926,-15.25622 49.09714,-12.37076c8.47156,-1.30718 12.22088,7.48744 9.24064,14.25997c-4.60655,4.505 -12.6192,0.22041 -18.58519,2.55045c-19.34204,2.49061 -38.43487,10.9 -51.50731,25.67525c-0.07974,-1.58065 -2.10333,-2.63389 -1.47501,-4.31214l0,0zm0.23363,9.00921c1.02994,-7.16172 8.1722,-10.89055 13.1384,-15.24284c16.71855,-11.83279 37.67619,-16.52514 57.94279,-15.7293c0.50221,8.15984 -3.33762,15.94814 -7.95756,22.41241c-6.34383,3.53678 -14.23289,-0.49042 -20.95771,2.72914c-11.79462,2.85508 -24.92326,6.45245 -32.47234,16.73531c-2.74307,8.25746 -8.54092,-0.1472 -8.98945,-5.00721c-0.63761,-1.93093 -0.5489,-3.91462 -0.70412,-5.89751l-0.00001,0zm3.23828,-24.48898c1.00955,-8.98559 6.93177,-16.41541 12.36477,-23.26202c6.12437,-7.29687 14.46165,-12.64626 23.83075,-14.60594c7.42612,-1.9396 15.07973,-2.74653 22.69328,-3.56125c5.77391,4.43486 9.44688,12.1468 8.47943,19.44154c-4.48453,1.13589 -12.41374,-2.70442 -18.4608,-1.76791c-17.15,0.16153 -34.68241,7.03505 -46.27237,19.85827c-0.965,1.23744 -1.83262,2.54887 -2.63506,3.8973l0,0zm-0.91926,35.44644c6.41311,5.14261 6.62336,14.05578 10.5645,20.76486c-4.72422,-6.0817 -8.88263,-13.18674 -10.5645,-20.76486zm5.07822,4.89937c2.01178,-5.54327 8.31854,-13.33393 13.58048,-12.75458c2.10349,5.41812 3.0148,11.28886 6.43373,16.17329c9.17979,16.85103 25.97879,31.4287 45.95018,31.88763c3.26599,0.66199 11.92412,-1.53736 11.57226,-0.62738c-8.3472,4.0996 -18.01134,4.99856 -27.20867,4.66874c-17.08104,-1.13432 -34.09479,-9.33825 -44.36339,-23.21848c-2.90625,-4.98518 -4.55829,-10.56939 -5.96458,-16.12842l0,-0.00079zm14.05932,-14.1337c4.60898,-2.14348 13.24405,-8.66364 16.70737,-3.40847c8.45213,16.64715 22.74146,30.80211 40.33323,37.45847c9.13357,3.04715 19.40856,2.99912 28.31544,-0.80371c-3.71468,5.76763 -9.86172,9.46656 -15.65454,12.86399c-14.80517,6.31943 -32.70156,2.89287 -45.17591,-6.95941c-12.0736,-9.55787 -21.55117,-23.23738 -24.49339,-38.49752l-0.01739,-0.35344l-0.0148,-0.29991l0,0l0,0zm6.1764,-59.94339c11.20487,-7.70698 25.08975,-11.32137 38.63308,-10.36126c-6.93265,4.42486 -15.6317,2.74386 -23.23367,5.13961c-5.30351,1.15471 -10.56765,2.70749 -15.39941,5.22164l0,0zm9.67492,54.30249c7.377,-3.4919 15.77222,-3.43522 23.74471,-2.95742c4.80648,7.48602 8.23384,16.18745 15.69703,21.58432c8.6975,7.76625 21.35367,9.95853 32.31272,6.30919c3.76347,-2.54257 7.94178,-0.91785 5.88649,4.12558c-2.47411,8.37396 -11.25896,12.05163 -19.30938,12.45781c-16.47005,1.6452 -31.53734,-7.71194 -42.66327,-19.01341c-6.49064,-6.49811 -11.9726,-14.07546 -15.6683,-22.50609l0,0zm25.01757,-62.26483c6.00299,-4.76264 14.17858,-0.45318 20.3209,1.82593c6.10925,5.22699 6.92792,13.92401 8.54241,21.34902c2.69922,17.43 1.60741,36.15451 -6.54536,52.06487c-1.94825,5.57712 -7.54742,8.59829 -11.13615,2.56855c-4.17044,-4.59946 -7.35928,-9.95146 -10.36865,-15.33966c-1.7798,-5.15599 4.04608,-8.79038 5.2662,-13.50476c2.37726,-4.70021 2.98181,-9.98688 3.24867,-15.13106c1.12015,-7.69557 0.01811,-15.67893 -2.00573,-23.13032c-1.41928,-4.12314 -3.72412,-8.11663 -7.32229,-10.70257l0,0zm17.25407,82.31966c11.81706,-13.35047 13.69052,-32.30798 12.80103,-49.37549c-0.54158,-10.06292 -2.07185,-20.46204 -7.37818,-29.22541c5.48344,0.1698 11.38096,5.32043 15.67736,9.11351c12.1768,15.48245 15.75763,38.13189 6.50048,55.92124c-3.64147,7.19319 -8.57389,13.68581 -14.36435,19.28497c-4.84743,-0.3983 -9.76095,-2.23243 -13.23633,-5.71881l0,0zm13.47563,5.79596c12.72623,-12.26575 21.94248,-29.89451 19.19209,-47.97039c-1.09495,-8.46605 -4.18618,-16.64424 -8.81557,-23.80634c8.47866,5.28343 13.19305,14.64128 17.43354,23.33483c6.09588,15.19404 2.78188,33.71309 -8.11181,45.85683c-5.59446,3.17309 -13.48824,3.65878 -19.69825,2.58507zm20.95141,-2.83698c4.36568,-7.62614 9.31936,-15.35697 9.77435,-24.40474c0.67853,-3.02512 -0.37391,5.93529 -0.73917,7.82057c-1.16107,6.65791 -2.67719,13.76374 -6.80353,19.19603c-0.94934,-0.52662 -0.52583,-3.09123 -2.23165,-2.61185l0,0z" stroke-width="5" stroke="#000000" fill="#FF0000"/>
  <path class="http://www.baidu.com" id="arrow" d="m294.12221,231.98576c-3.21705,-3.21705 -2.79497,-5.16514 5.02663,-23.19878c3.94953,-9.10605 7.18093,-16.82108 7.18093,-17.1445c0,-0.3234 -10.90601,-0.58802 -24.23565,-0.58802l-24.23565,0l0,-17.05471l0,-17.05471l24.42773,0c18.83515,0 24.21745,-0.51377 23.5094,-2.24405c-0.50507,-1.23422 -3.95041,-9.42431 -7.65632,-18.20016c-6.98567,-16.54269 -6.98348,-20.97904 0.01079,-22.35415c3.48079,-0.68432 57.67252,51.89502 59.5352,57.76387c-18.05079,20.955 -39.62761,42.8895 -59.50337,62.22951c-1.048,0 -2.87485,-0.96943 -4.05971,-2.15429l0,0z" stroke-width="5" stroke="#000000" fill="#FF0000"/>
  <path class="http://www.baidu.com" id="light" d="m459.12493,273.18956c6.80069,-17.40671 25.32138,-27.66876 43.30889,-28.98414c0,-3.70553 0,-7.41104 0,-11.11656c-28.87176,-2.07333 -57.43852,-14.21937 -76.62706,-36.40377c-17.5295,-18.82154 -26.81977,-44.13726 -28.09679,-69.6606c-10.14142,-7.22426 9.47108,-12.48058 11.86037,-4.48929c-5.46388,6.62997 -0.17028,17.02915 0.60624,25.14942c8.65253,38.37555 42.50284,69.04573 81.24213,74.48733c9.90605,4.39006 12.54175,-1.50937 10.84855,-10.54857c2.12,-7.14671 -5.60843,-4.97715 -10.23131,-6.31145c-30.54243,-5.3546 -57.07745,-29.13211 -64.90848,-59.35948c-2.24356,-8.64833 -2.97316,-18.17525 -5.70531,-25.26134c5.80568,-4.5405 19.7451,-1.20935 12.0377,6.90172c0.82583,34.34194 29.33145,64.64227 63.05184,68.95877c6.972,3.40875 6.17244,-2.42293 5.92209,-7.09212c3.69439,-11.35149 -7.32332,-9.64518 -14.72759,-12.43711c-20.82307,-7.07918 -36.0855,-27.39897 -37.52869,-49.37958c-9.96081,-8.68068 11.87076,-13.22044 12.02494,-4.18722c-5.72158,6.66973 0.72975,17.49935 4.17686,24.61422c7.78871,12.69833 21.29178,21.27113 36.05448,22.97246c0,-5.66993 0,-11.33985 0,-17.00979c-13.72477,-2.12202 -24.68734,-14.11095 -26.2398,-27.86792c-9.35108,-7.61396 10.99687,-11.28552 12.46011,-3.99197c-5.07715,3.97985 -1.2568,10.36539 1.72404,14.67879c2.12992,2.55069 12.67119,11.42872 12.05565,4.74033c0,-7.5617 0,-15.12338 0,-22.68508c-6.42907,-4.0825 2.42486,-6.80136 -1.44158,-11.621c2.22387,-5.00147 3.2312,-17.93859 4.89652,-18.09255c5.5783,7.94729 3.49578,18.97863 8.75964,25.89023c-2.90471,3.12564 -3.40935,6.59334 -2.91369,11.22578c0,6.07355 0,12.14711 0,18.22066c8.31924,-2.44486 15.8496,-9.36443 16.37596,-18.45281c-9.50617,-11.16158 23.13391,-8.69003 9.58748,1.20559c-1.41095,13.45741 -12.88832,24.54955 -25.96344,26.81699c0,5.64758 0,11.29516 0,16.94274c22.37834,-2.24781 42.11332,-21.97751 42.51001,-44.82782c-9.31794,-10.29351 21.03966,-9.61113 10.64885,-0.39871c-2.38499,11.15973 -4.6959,23.02066 -12.28489,32.13596c-9.57323,12.9465 -24.90877,20.63312 -40.69333,22.44719c0.12809,6.89286 -3.50926,21.45187 8.39277,15.64388c29.63169,-5.04326 54.82806,-29.87277 59.35498,-59.8717c4.32629,-6.66852 -6.56379,-18.84622 6.24391,-17.1674c7.91455,-1.84662 9.03118,4.78172 4.42381,8.83973c-1.54316,27.05386 -16.51655,53.10281 -40.02136,66.78185c-11.70507,6.88214 -24.99673,11.21957 -38.57475,11.9508c0.13444,5.67689 -0.35885,11.42747 0.46444,17.04508c26.62035,-2.12486 52.8242,-13.645 70.18715,-34.4269c15.4658,-17.36807 23.42989,-40.27813 24.75828,-63.31644c-7.86504,-7.57144 8.58857,-8.75418 12.50779,-5.30858c-4.43421,8.78996 -3.93193,20.38601 -6.87393,30.54351c-9.56428,40.00986 -44.02868,72.24479 -84.30956,79.53303c-5.52144,1.18248 -11.13856,1.78143 -16.73418,2.48149c-0.53547,6.85883 -0.38303,13.83439 8.74197,12.52352c15.52119,3.26085 30.42227,13.98485 35.38086,29.54235c-32.47904,0 -64.9581,0 -97.43717,0c0.23486,-0.66787 0.46968,-1.33576 0.70457,-2.0036l0.00001,0.00007zm-62.47666,-157.22482c-0.41374,-6.1161 3.26832,-19.16147 4.267,-20.67591c1.71205,5.59844 9.48615,17.92705 3.56425,21.55967c-2.48077,-0.28912 -6.06617,1.18755 -7.83125,-0.88377zm26.02252,0.41566c-1.29235,-7.55067 4.1129,-14.6323 3.40259,-22.42592c2.42672,6.35423 12.33406,22.22005 1.48219,22.92921c-1.63358,-0.05826 -3.30664,0.02683 -4.88478,-0.50328l0,-0.00001zm26.85195,-0.12986c-1.1489,-7.4072 3.92216,-14.41683 3.48042,-22.05726c3.00566,6.41369 13.11163,24.65492 -0.62515,22.67188l-1.44123,-0.09516l-1.41404,-0.51947l0,0zm26.08535,0.19914c-1.47136,-7.55159 4.07326,-14.685 3.34402,-22.49521c2.46522,6.39528 12.28154,22.13271 1.49979,23.08821c-1.62305,-0.06179 -3.29609,0.01621 -4.84381,-0.593zm52.16492,-0.28852c-1.1716,-7.59558 4.00719,-14.78034 3.27854,-22.65269c2.03908,3.83246 4.76501,10.35196 5.96878,15.45871c3.59797,8.31523 -2.97817,9.43582 -9.24732,7.19398l0,0.00001zm26.91715,0.33536c-2.18133,-7.35348 3.99789,-14.74163 3.07308,-22.54204c2.57959,6.27421 9.35201,17.45581 4.92586,22.86601c-2.66527,0.01474 -5.37842,0.31457 -7.99894,-0.32397zm26.28291,-0.15549c-1.68311,-6.13002 3.27755,-18.7151 3.82435,-21.2843c2.63693,6.3244 12.45854,25.3143 -2.10571,21.80975l-1.71865,-0.52545l0,0zm26.45622,-0.11559c-1.438,-6.73204 3.92257,-16.42084 3.64248,-21.64149c2.61578,6.04711 12.79829,24.34743 -0.71355,22.3131l-1.42539,-0.11274l-1.50353,-0.55887l0,0z" stroke-linecap="null" stroke-linejoin="null" stroke-dasharray="null" stroke-width="5" stroke="#000000" fill="#FF0000"/>
 </g>
</svg>
